<svg id="SvgjsSvg1001" width="288" height="288" xmlns="http://www.w3.org/2000/svg" version="1.1" xmlns:xlink="http://www.w3.org/1999/xlink" xmlns:svgjs="http://svgjs.com/svgjs"><defs id="SvgjsDefs1002"></defs><g id="SvgjsG1008" transform="matrix(0.9167,0,0,0.9167,11.986314675140392,11.994344896316534)"><svg xmlns="http://www.w3.org/2000/svg" width="288" height="288" viewBox="0 0 16 16"><path fill-rule="evenodd" d="M 5.9863281 3 A 0.99944388 0.99944388 0 0 0 5.0019531 4.015625 L 5.0019531 11.964844 L 5.0019531 11.986328 A 0.99944388 0.99944388 0 0 0 5.0195312 12.185547 A 0.99944388 0.99944388 0 0 0 5.0429688 12.283203 A 0.99944388 0.99944388 0 0 0 5.1171875 12.466797 A 0.99944388 0.99944388 0 0 0 5.1523438 12.525391 A 0.99944388 0.99944388 0 0 0 5.1796875 12.568359 A 0.99944388 0.99944388 0 0 0 5.1835938 12.574219 A 0.99944388 0.99944388 0 0 0 5.2285156 12.632812 A 0.99944388 0.99944388 0 0 0 5.2890625 12.701172 A 0.99944388 0.99944388 0 0 0 5.3007812 12.710938 A 0.99944388 0.99944388 0 0 0 5.3359375 12.744141 A 0.99944388 0.99944388 0 0 0 5.390625 12.791016 A 0.99944388 0.99944388 0 0 0 5.4726562 12.847656 A 0.99944388 0.99944388 0 0 0 5.5605469 12.896484 A 0.99944388 0.99944388 0 0 0 5.6523438 12.935547 A 0.99944388 0.99944388 0 0 0 5.7460938 12.964844 A 0.99944388 0.99944388 0 0 0 5.84375 12.986328 A 0.99944388 0.99944388 0 0 0 5.8476562 12.986328 A 0.99944388 0.99944388 0 0 0 6.0488281 12.998047 L 9.9863281 12.998047 A 0.99944388 0.99944388 0 1 0 9.9863281 10.998047 L 7 10.998047 L 7 4.015625 A 0.99944388 0.99944388 0 0 0 5.9863281 3 z " color="#000" enable-background="accumulate" font-family="sans-serif" font-weight="400" overflow="visible" style="line-height:normal;text-indent:0;text-align:start;text-decoration-line:none;text-decoration-style:solid;text-decoration-color:#000;text-transform:none;block-progression:tb;white-space:normal;isolation:auto;mix-blend-mode:normal;solid-color:#000;solid-opacity:1" fill="#05ce21" class="color000 svgShape"></path></svg></g></svg>